<svg xmlns="http://www.w3.org/2000/svg" width="39" height="37" fill="none"><g clip-path="url(#a)"><path fill="url(#b)" d="M39 18.613C39 8.396 30.269.113 19.5.113S0 8.396 0 18.613C0 27.847 7.13 35.5 16.453 36.888V23.96h-4.951v-5.35h4.951v-4.073c0-4.636 2.912-7.198 7.366-7.198 2.132 0 4.365.362 4.365.362v4.553h-2.46c-2.423 0-3.179 1.426-3.179 2.89v3.468h5.408l-.864 5.35h-4.544v12.926C31.87 35.5 39 27.846 39 18.613Z"/></g><defs><linearGradient id="b" x1="19.5" x2="19.5" y1=".113" y2="36.889" gradientUnits="userSpaceOnUse"><stop stop-color="#FFBF00"/><stop offset="1" stop-color="#F2A50C"/></linearGradient><clipPath id="a"><path fill="#fff" d="M0 0h39v37H0z"/></clipPath></defs></svg>