<svg xmlns="http://www.w3.org/2000/svg" width="39" height="37" fill="none"><g clip-path="url(#a)"><path fill="url(#b)" d="M19.5 0c-5.297 0-5.959.023-8.039.111-2.077.092-3.49.402-4.734.86-1.282.472-2.37 1.106-3.454 2.134-1.084 1.028-1.754 2.06-2.25 3.278-.482 1.179-.81 2.52-.906 4.49C.019 12.847 0 13.474 0 18.5s.024 5.653.117 7.627c.097 1.968.424 3.311.907 4.49.497 1.215 1.165 2.25 2.249 3.278a9.602 9.602 0 0 0 3.454 2.134c1.245.456 2.659.769 4.734.86 2.08.092 2.742.111 8.039.111s5.959-.023 8.039-.111c2.075-.093 3.49-.404 4.733-.86 1.281-.472 2.371-1.107 3.455-2.134 1.083-1.028 1.754-2.058 2.25-3.278.48-1.179.81-2.522.906-4.49.097-1.974.117-2.601.117-7.627s-.024-5.653-.117-7.627c-.098-1.968-.426-3.313-.907-4.49-.497-1.217-1.166-2.25-2.249-3.278-1.084-1.028-2.17-1.664-3.454-2.134-1.244-.458-2.659-.769-4.734-.86C25.459.019 24.797 0 19.5 0Zm0 3.33c5.205 0 5.826.025 7.881.11 1.901.084 2.933.383 3.62.64.912.334 1.56.735 2.245 1.38.68.648 1.103 1.263 1.456 2.13.266.65.585 1.63.671 3.433.093 1.952.114 2.537.114 7.477s-.025 5.527-.12 7.477c-.1 1.804-.416 2.783-.685 3.433-.364.867-.778 1.48-1.46 2.131-.681.646-1.34 1.047-2.243 1.381-.682.253-1.73.555-3.632.637-2.07.088-2.68.108-7.896.108-5.218 0-5.827-.023-7.896-.114-1.902-.094-2.95-.395-3.633-.65-.925-.344-1.56-.738-2.241-1.385-.684-.646-1.121-1.27-1.463-2.128-.268-.647-.583-1.642-.682-3.445-.073-1.943-.1-2.543-.1-7.468 0-4.927.027-5.529.1-7.494.1-1.804.414-2.797.682-3.444.342-.879.779-1.48 1.463-2.13.68-.645 1.316-1.061 2.24-1.384.683-.256 1.709-.556 3.61-.649 2.072-.07 2.681-.092 7.896-.092l.073.046Zm0 5.67c-5.533 0-10.013 4.255-10.013 9.5 0 5.25 4.485 9.5 10.013 9.5 5.533 0 10.013-4.255 10.013-9.5 0-5.25-4.485-9.5-10.013-9.5Zm0 15.667c-3.591 0-6.5-2.76-6.5-6.167s2.909-6.167 6.5-6.167S26 15.093 26 18.5s-2.909 6.167-6.5 6.167ZM32.25 8.626c0 1.225-1.05 2.22-2.34 2.22-1.292 0-2.34-.996-2.34-2.22 0-1.224 1.05-2.219 2.34-2.219 1.288-.001 2.34.995 2.34 2.219Z"/></g><defs><linearGradient id="b" x1="19.5" x2="19.5" y1="0" y2="37" gradientUnits="userSpaceOnUse"><stop stop-color="#FFBF00"/><stop offset="1" stop-color="#F2A50C"/></linearGradient><clipPath id="a"><path fill="#fff" d="M0 0h39v37H0z"/></clipPath></defs></svg>