<svg xmlns="http://www.w3.org/2000/svg" width="39" height="37" fill="none"><path fill="url(#a)" d="M38.184 9.537a4.598 4.598 0 0 0-1.26-2.084 4.966 4.966 0 0 0-2.188-1.21c-3.04-.778-15.236-.778-15.236-.778s-12.196 0-15.238.779a4.968 4.968 0 0 0-2.187 1.21 4.6 4.6 0 0 0-1.26 2.083C0 12.44 0 18.5 0 18.5s0 6.059.816 8.963c.22.787.655 1.506 1.26 2.084.605.578 1.36.995 2.188 1.21 3.04.778 15.236.778 15.236.778s12.196 0 15.238-.779a4.965 4.965 0 0 0 2.188-1.209 4.598 4.598 0 0 0 1.26-2.084C39 24.56 39 18.5 39 18.5s0-6.059-.816-8.963ZM15.511 24V13l10.193 5.5L15.511 24Z"/><defs><linearGradient id="a" x1="19.5" x2="19.5" y1="5.465" y2="31.535" gradientUnits="userSpaceOnUse"><stop stop-color="#FFBF00"/><stop offset="1" stop-color="#F2A50C"/></linearGradient></defs></svg>