<svg xmlns="http://www.w3.org/2000/svg" width="20" height="16" fill="none"><path fill="url(#a)" d="M16.667 2.599H3.333c-.916 0-1.658.584-1.658 1.3l-.008 7.796c0 .715.75 1.3 1.666 1.3h13.334c.916 0 1.666-.585 1.666-1.3V3.898c0-.715-.75-1.3-1.666-1.3Zm-.334 2.761-5.891 2.873A1.027 1.027 0 0 1 10 8.33c-.156 0-.31-.033-.442-.097L3.667 5.36a.683.683 0 0 1-.212-.145.511.511 0 0 1-.121-.2.434.434 0 0 1-.013-.22.484.484 0 0 1 .1-.205.641.641 0 0 1 .194-.16.822.822 0 0 1 .259-.088.904.904 0 0 1 .282-.002.828.828 0 0 1 .261.085L10 7.147l5.583-2.722a.828.828 0 0 1 .26-.085.904.904 0 0 1 .283.002.822.822 0 0 1 .26.088.64.64 0 0 1 .194.16c.05.062.084.133.099.206a.433.433 0 0 1-.013.22.51.51 0 0 1-.121.199.682.682 0 0 1-.212.145Z"/><defs><linearGradient id="a" x1="10" x2="10" y1="2.599" y2="12.995" gradientUnits="userSpaceOnUse"><stop stop-color="#FFBF00"/><stop offset="1" stop-color="#F2A50C"/></linearGradient></defs></svg>