<svg xmlns="http://www.w3.org/2000/svg" width="136" height="30" fill="none"><path fill="#fff" d="M5.133 11.53c.66-.966 1.564-1.752 2.713-2.356 1.173-.604 2.505-.906 3.996-.906 1.735 0 3.3.423 4.693 1.268 1.417.846 2.53 2.055 3.336 3.626.831 1.546 1.247 3.347 1.247 5.401s-.416 3.879-1.247 5.474c-.807 1.57-1.919 2.791-3.336 3.661-1.393.87-2.958 1.305-4.693 1.305-1.515 0-2.848-.29-3.996-.87-1.125-.604-2.029-1.377-2.713-2.32v2.864H0V1.851h5.133v9.68Zm10.742 7.033c0-1.208-.257-2.248-.77-3.118-.489-.894-1.149-1.57-1.98-2.03a5.244 5.244 0 0 0-2.64-.688c-.928 0-1.808.241-2.64.725-.806.459-1.466 1.135-1.979 2.03-.489.894-.733 1.945-.733 3.154 0 1.208.244 2.26.733 3.153.513.895 1.173 1.583 1.98 2.067.83.459 1.71.688 2.64.688.953 0 1.832-.241 2.64-.724.83-.484 1.49-1.173 1.979-2.067.513-.894.77-1.957.77-3.19ZM27.45 6.201c-.904 0-1.662-.278-2.273-.834-.587-.58-.88-1.293-.88-2.138 0-.846.293-1.547.88-2.103.61-.58 1.369-.87 2.273-.87.904 0 1.65.29 2.236.87.611.556.917 1.257.917 2.103 0 .845-.306 1.558-.917 2.138-.586.556-1.332.834-2.236.834Zm2.53 2.393v20.083h-5.133V8.594h5.133Zm17.097 20.083-6.893-8.555v8.555h-5.133V1.851h5.133v15.262l6.82-8.52h6.672L44.73 18.673l9.019 10.005h-6.672Zm7.046-10.041c0-2.079.428-3.891 1.283-5.438.855-1.571 2.04-2.78 3.556-3.625 1.516-.87 3.25-1.305 5.206-1.305 2.518 0 4.595.628 6.233 1.885 1.662 1.232 2.774 2.972 3.336 5.22h-5.535c-.293-.87-.794-1.547-1.503-2.03-.684-.508-1.54-.761-2.566-.761-1.467 0-2.628.531-3.483 1.595-.856 1.039-1.283 2.525-1.283 4.459 0 1.909.427 3.395 1.283 4.459.855 1.039 2.016 1.558 3.483 1.558 2.077 0 3.434-.918 4.07-2.755h5.535c-.562 2.175-1.674 3.903-3.336 5.184-1.662 1.281-3.74 1.921-6.233 1.921-1.955 0-3.69-.422-5.206-1.268a9.274 9.274 0 0 1-3.556-3.625c-.855-1.571-1.284-3.396-1.284-5.474Zm27.49-6.925a7.225 7.225 0 0 1 2.566-2.5c1.075-.605 2.297-.907 3.666-.907v5.329h-1.356c-1.614 0-2.836.374-3.667 1.124-.806.749-1.21 2.054-1.21 3.915v10.005H76.48V8.594h5.132v3.117Zm21.97 14.102c-.562.919-1.478 1.692-2.749 2.32a9.444 9.444 0 0 1-4.106.907c-1.271 0-2.42-.254-3.447-.762-1.026-.507-1.833-1.208-2.42-2.102-.586-.894-.88-1.921-.88-3.081 0-1.861.697-3.384 2.09-4.568 1.418-1.184 3.532-1.777 6.343-1.777h5.169c-.049-1.28-.427-2.296-1.136-3.045-.685-.773-1.638-1.16-2.86-1.16-1.075 0-1.967.29-2.676.87-.709.556-1.161 1.342-1.357 2.357h-5.132c.244-1.45.77-2.743 1.576-3.88a8.27 8.27 0 0 1 3.226-2.682c1.345-.652 2.848-.979 4.51-.979 1.711 0 3.251.35 4.619 1.052a7.805 7.805 0 0 1 3.263 3.008c.782 1.306 1.173 2.84 1.173 4.604v11.782h-5.206v-2.864Zm-5.352-.87c.855 0 1.686-.181 2.493-.544a5.005 5.005 0 0 0 2.053-1.63c.537-.726.806-1.584.806-2.575v-.145h-4.876c-1.173 0-2.053.23-2.64.69-.562.458-.843 1.063-.843 1.812 0 .725.257 1.305.77 1.74.538.435 1.283.652 2.237.652Zm21.383-12.18v15.914h-5.206V12.763h-2.31v-4.17h2.31V7.58c0-2.465.709-4.278 2.126-5.438C117.952.981 120.091.437 122.95.51v4.277c-1.246-.024-2.114.182-2.603.617-.489.435-.733 1.22-.733 2.356v.834h6.67V3.627h5.17v4.967H136v4.169h-4.546v9.715c0 .677.159 1.172.476 1.486.343.29.905.436 1.687.436H136v4.277h-3.226c-4.326 0-6.49-2.078-6.49-6.235v-9.68h-6.67Z"/></svg>